<svg width="20" height="20" viewBox="0 0 20 20" fill="none" xmlns="http://www.w3.org/2000/svg">
<g clip-path="url(#clip0_967_278)">
<path d="M10.0001 18.3332C14.6025 18.3332 18.3334 14.6022 18.3334 9.99984C18.3334 5.39746 14.6025 1.6665 10.0001 1.6665C5.39771 1.6665 1.66675 5.39746 1.66675 9.99984C1.66675 14.6022 5.39771 18.3332 10.0001 18.3332Z" stroke="#757575" stroke-width="2" stroke-linecap="round" stroke-linejoin="round"/>
<mask id="mask0_967_278" style="mask-type:alpha" maskUnits="userSpaceOnUse" x="0" y="0" width="8" height="10">
<path d="M2 2.5L7 0.5L8 4L4 10H0L2 2.5Z" fill="#D9D9D9"/>
</mask>
<g mask="url(#mask0_967_278)">
<path d="M10.0001 18.3332C14.6025 18.3332 18.3334 14.6022 18.3334 9.99984C18.3334 5.39746 14.6025 1.6665 10.0001 1.6665C5.39771 1.6665 1.66675 5.39746 1.66675 9.99984C1.66675 14.6022 5.39771 18.3332 10.0001 18.3332Z" stroke="white" stroke-width="2" stroke-linecap="round" stroke-linejoin="round"/>
</g>
</g>
<defs>
<clipPath id="clip0_967_278">
<rect width="20" height="20" fill="white"/>
</clipPath>
</defs>
</svg>
